<svg xmlns="http://www.w3.org/2000/svg" width="24" height="24" viewBox="0 0 32 32" fill="none">
<g clip-path="url(#clip0_4284_19554)">
<rect width="32" height="32" rx="4" fill="white"/>
<path d="M15.9583 27.5C15.9583 27.5 25.7914 24.1545 25.7914 11.8674V7.44457C25.7914 6.9598 25.4144 6.57078 24.9415 6.54085C23.158 6.45108 18.9268 6.09199 15.9583 4.5C12.9956 6.09199 8.75836 6.45108 6.97486 6.53486C6.50205 6.57078 6.125 6.9598 6.125 7.44457V11.8674C6.125 24.1545 15.9583 27.5 15.9583 27.5Z" fill="#00AEEF"/>
<path d="M19.9316 13.4826C19.812 12.1419 18.6628 11.6811 17.2025 11.5434L17.2085 9.67017L16.0773 9.67615L16.0833 11.4896C15.7841 11.4896 15.4668 11.4896 15.1617 11.4956V9.6582L14.0186 9.66419L14.0246 11.5255C13.7791 11.5315 11.7383 11.5315 11.7383 11.5315V12.7225H13.1866L13.1807 18.7073L11.9118 18.7133L11.8999 20.078C11.8999 20.078 13.6953 20.072 13.9587 20.072L13.9647 21.9572L15.0898 21.9632L15.1018 20.09C15.4131 20.0958 15.7122 20.1018 16.0056 20.1078L15.9996 21.9632H17.1427L17.1367 20.09C19.0398 19.9941 20.3805 19.5213 20.5601 17.7378C20.7037 16.2955 20.0333 15.6491 18.9501 15.3857C19.6085 15.0506 20.0215 14.4641 19.9316 13.4826ZM18.3217 17.4925C18.3097 18.899 15.9277 18.7253 15.1557 18.7193L15.1497 16.2237C15.9217 16.2296 18.3337 16.0262 18.3217 17.4925ZM17.819 13.9733C17.807 15.2541 15.82 15.0925 15.1856 15.0865L15.1796 12.8242C15.814 12.8242 17.825 12.6387 17.819 13.9733Z" fill="white"/>
</g>
<defs>
<clipPath id="clip0_4284_19554">
<rect width="32" height="32" rx="4" fill="white"/>
</clipPath>
</defs>
</svg>