<svg xmlns="http://www.w3.org/2000/svg" width="24" height="24" viewBox="0 0 32 32" fill="none">
<rect width="32" height="32" rx="4" fill="white"/>
<g clip-path="url(#clip0_4284_19593)">
<path d="M16.0193 19.9909C13.8104 19.9909 12.0199 18.2019 12.0221 15.996C12.0164 13.7992 13.7952 12.0147 15.995 12.009H16.0377C17.7967 12.0168 19.2872 13.1588 19.8136 14.7403C19.8583 14.875 19.9444 14.9923 20.0596 15.0754C20.1748 15.1586 20.3133 15.2034 20.4554 15.2035H23.976C24.0197 15.2035 24.0617 15.1861 24.0926 15.1552C24.1236 15.1243 24.141 15.0824 24.141 15.0387V14.132C24.141 14.1126 24.1487 14.094 24.1625 14.0802C24.1762 14.0665 24.1949 14.0588 24.2143 14.0588H25.0721C25.0915 14.0588 25.1102 14.0665 25.1239 14.0802C25.1377 14.094 25.1454 14.1126 25.1454 14.132V15.0389C25.1454 15.0826 25.1628 15.1245 25.1938 15.1554C25.2247 15.1863 25.2667 15.2037 25.3105 15.2037H25.8121C25.8559 15.2037 25.8979 15.1863 25.9288 15.1554C25.9598 15.1245 25.9772 15.0826 25.9772 15.0389V14.132C25.9772 14.1126 25.9849 14.094 25.9986 14.0802C26.0124 14.0665 26.031 14.0588 26.0505 14.0588H26.9083C26.9277 14.0588 26.9464 14.0665 26.9601 14.0802C26.9739 14.094 26.9816 14.1126 26.9816 14.132V15.0389C26.9816 15.0826 26.999 15.1245 27.0299 15.1554C27.0609 15.1863 27.1029 15.2037 27.1466 15.2037H27.8342C27.878 15.2037 27.92 15.1863 27.9509 15.1554C27.9819 15.1245 27.9993 15.0826 27.9993 15.0389C27.9993 15.0343 27.9993 15.0296 27.9993 15.025C27.5029 8.85639 22.333 4.00385 16.0269 4C9.39083 3.99597 4 9.37502 4 16.0002C4 22.6254 9.38129 28 16.0193 28C22.3288 28 27.5027 23.1462 27.9994 16.9747C28.0012 16.9531 27.9987 16.9314 27.9921 16.9108C27.9855 16.8902 27.9749 16.8711 27.9609 16.8546C27.9469 16.8381 27.9297 16.8245 27.9105 16.8146C27.8912 16.8047 27.8701 16.7987 27.8485 16.7969C27.8438 16.7969 27.8392 16.7969 27.8344 16.7969H20.4558C20.3129 16.7974 20.1738 16.8428 20.0582 16.9267C19.9427 17.0106 19.8565 17.1287 19.812 17.2643C19.2824 18.8485 17.7846 19.9909 16.0193 19.9909Z" fill="#1C46A0"/>
</g>
<defs>
<clipPath id="clip0_4284_19593">
<rect width="24" height="24" fill="white" transform="translate(4 4)"/>
</clipPath>
</defs>
</svg>