<svg xmlns="http://www.w3.org/2000/svg" width="24" height="24" viewBox="0 -34.5 129 129">
    <g>
        <g>
            <g>
                <g>
                    <path fill="#00e6e6" d="M104.997 52.376a7.849 7.849 0 1 1 0-15.698 7.849 7.849 0 0 1 0 15.698zm9.814-19.595a12.908 12.908 0 0 0 3.149-8.463c0-7.159-5.804-12.962-12.963-12.962-7.159 0-12.962 5.803-12.962 12.962 0 3.235 1.188 6.191 3.148 8.463a15.275 15.275 0 0 0-5.494 11.747c0 8.454 6.853 15.308 15.308 15.308s15.309-6.854 15.309-15.308c0-4.72-2.137-8.939-5.495-11.747z"/>
                </g>
                <g>
                    <path fill="#00e6e6" d="M23.375 59.153c-6.372 0-11.862-2.235-16.466-6.707C2.303 47.975 0 42.284 0 35.375c0-6.909 2.303-12.61 6.909-17.105 4.604-4.493 10.239-6.74 16.903-6.74 4.964 0 9.379 1.219 13.247 3.655a20.356 20.356 0 0 1 5.935 5.658c1.38 1.987-.02 4.706-2.44 4.706h-2.58a2.952 2.952 0 0 1-2.46-1.298c-2.552-3.83-6.453-5.745-11.702-5.745-4.696 0-8.531 1.542-11.504 4.628-2.975 3.085-4.46 7.166-4.46 12.241 0 5.076 1.485 9.156 4.46 12.241 2.973 3.086 6.674 4.629 11.101 4.629 4.428 0 7.949-1.174 10.564-3.522 1.663-1.492 2.906-3.323 3.729-5.493.744-1.962-.687-4.065-2.785-4.065H24.18a2.984 2.984 0 1 1 0-5.97H43.9a2.984 2.984 0 0 1 2.985 2.985v2.774c0 .14-.009.281-.028.421-.75 5.499-3.245 10.157-7.484 13.976-4.293 3.869-9.625 5.802-15.998 5.802z"/>
                </g>
                <g>
                    <path fill="#00e6e6" d="M57.103 58.65h-.307a3.67 3.67 0 0 1-3.67-3.67V15.703a3.67 3.67 0 0 1 3.67-3.67h.307a3.67 3.67 0 0 1 3.67 3.67v17.594l17.65-20.02a3.669 3.669 0 0 1 2.753-1.243c3.192 0 4.862 3.794 2.706 6.148L70.316 32.99a3.67 3.67 0 0 0-.027 4.928l13.102 14.614c2.119 2.362.442 6.118-2.732 6.118h-.165a3.669 3.669 0 0 1-2.776-1.269L60.772 37.79v17.19a3.67 3.67 0 0 1-3.669 3.67z"/>
                </g>
            </g>
            <g>
                <path fill="#00e6e6" d="M117.587 5.706a5.706 5.706 0 1 1 11.413 0 5.706 5.706 0 0 1-11.413 0z"/>
            </g>
        </g>
    </g>
</svg>