<svg xmlns="http://www.w3.org/2000/svg" width="24" height="24" viewBox="0 0 480 480" fill="none">
<g clip-path="url(#clip0_1_2)">
<path d="M480 240C480 372.547 372.547 480 240 480C107.453 480 -3.05176e-05 372.547 -3.05176e-05 240C-3.05176e-05 107.453 107.453 -3.05176e-05 240 -3.05176e-05C372.547 -3.05176e-05 480 107.453 480 240ZM398.187 79.4266C394.192 81.0898 393.034 87.432 395.6 93.5915C398.166 99.7511 403.482 103.399 407.477 101.736C411.472 100.072 412.63 93.7302 410.064 87.5706C407.498 81.4111 402.18 77.7635 398.187 79.4266ZM382.442 422.44C341.108 438.44 263.331 446.216 197.553 443.549C233.558 457.352 337.148 456.509 382.442 422.44ZM269.166 180.6C263.571 180.6 259.038 182.867 259.038 185.666C259.038 188.466 263.571 190.732 269.166 190.732C274.762 190.732 279.295 188.464 279.295 185.666C279.293 182.867 274.76 180.6 269.166 180.6ZM422.411 137.939C413.104 148.044 398.581 158.157 386.666 164.333C412.916 157.404 423.626 162.019 432.932 155.255C438.979 150.852 431.839 127.704 422.41 137.939H422.411ZM264.411 360.534C187.788 359.345 222.336 383.58 259.734 383.911C293.044 384.204 339.792 361.703 264.411 360.534ZM177.557 264.663C170 260.439 155.781 252.22 146 245.106C154 247.772 164.443 248.663 191.111 247.33C173.778 245.772 144.889 238.439 121.778 231.996C132.444 244.22 152.444 260.663 177.56 264.663L177.557 264.663ZM271.335 305.106C247.778 304.215 214.224 300.439 189.78 295.106C212.649 308.349 240.824 314.673 271.335 305.106ZM286.892 297.772C304.668 284.882 290.892 275.548 272.002 265.548C287.559 265.772 350.668 259.324 375.006 246.328C324.668 256.333 234.668 249.996 207.113 247.772C231.561 256.22 275.562 273.554 286.895 297.772H286.892Z" fill="url(#paint0_linear_1_2)"/>
</g>
<defs>
<linearGradient id="paint0_linear_1_2" x1="62.6666" y1="43.1667" x2="287" y2="296.5" gradientUnits="userSpaceOnUse">
<stop stop-color="#444FAC"/>
<stop offset="1" stop-color="#8BBAF9"/>
</linearGradient>
<clipPath id="clip0_1_2">
<rect width="480" height="480" fill="white"/>
</clipPath>
</defs>
</svg>